<?xml version="1.0" encoding="utf-8"?>
<svg
	version="1.1"
	xmlns="http://www.w3.org/2000/svg"
	xmlns:xlink="http://www.w3.org/1999/xlink"
	x="0%" y="0%"
	width="100%" height="100%"
	viewBox="0 0 48.0 48.0"
	enable-background="new 0 0 48.0 48.0"
	xml:space="preserve">
	<path
		fill="#FCD2C6"
		stroke="#000000"
		fill-opacity="1.000"
		stroke-opacity="0.000"
		fill-rule="nonzero"
		stroke-width="2.3314276"
		stroke-linejoin="round"
		stroke-linecap="round"
		d="M24.00,0.00C10.75,0.00,0.00,10.75,0.00,24.00C0.00,37.25,10.75,48.00,24.00,48.00C37.25,48.00,48.00,37.25,48.00,24.00C48.00,10.75,37.25,0.00,24.00,0.00z"/>
	<path
		fill="#000000"
		stroke="#000000"
		fill-opacity="0.333"
		stroke-opacity="1.000"
		fill-rule="nonzero"
		stroke-width="2.16"
		stroke-linejoin="round"
		stroke-linecap="round"
		d="M32.50,19.28Q32.50,15.50,28.72,15.50L19.28,15.50Q15.50,15.50,15.50,19.28L15.50,28.72Q15.50,32.50,19.28,32.50L28.72,32.50Q32.50,32.50,32.50,28.72L32.50,19.28z"/>
	<path
		fill="#000000"
		stroke="#000000"
		fill-opacity="0.000"
		stroke-opacity="1.000"
		fill-rule="nonzero"
		stroke-width="2.16"
		stroke-linejoin="round"
		stroke-linecap="round"
		d="M27.78,22.11L26.36,22.11C24.94,22.11,24.00,23.06,24.00,24.47L24.00,31.56M24.00,26.83L27.78,26.83"/>
</svg>