<?xml version="1.0" encoding="utf-8"?>
<svg
	version="1.1"
	xmlns="http://www.w3.org/2000/svg"
	xmlns:xlink="http://www.w3.org/1999/xlink"
	x="0%" y="0%"
	width="100%" height="100%"
	viewBox="0 0 48.0 48.0"
	enable-background="new 0 0 48.0 48.0"
	xml:space="preserve">
	<path
		fill="#FCD2C6"
		stroke="#000000"
		fill-opacity="1.000"
		stroke-opacity="0.000"
		fill-rule="nonzero"
		stroke-width="2.3314276"
		stroke-linejoin="round"
		stroke-linecap="round"
		d="M24.00,0.00C10.75,0.00,0.00,10.75,0.00,24.00C0.00,37.25,10.75,48.00,24.00,48.00C37.25,48.00,48.00,37.25,48.00,24.00C48.00,10.75,37.25,0.00,24.00,0.00z"/>
	<path
		fill="#000000"
		stroke="#000000"
		fill-opacity="0.000"
		stroke-opacity="1.000"
		fill-rule="nonzero"
		stroke-width="2.16"
		stroke-linejoin="round"
		stroke-linecap="round"
		d="M27.64,15.50L25.21,15.50Q24.00,15.50,22.79,15.50Q21.57,15.50,20.36,15.50L19.14,15.50Q15.50,15.50,15.50,19.14L15.50,28.86Q15.50,32.50,19.14,32.50L28.86,32.50Q32.50,32.50,32.50,28.86L32.50,20.36M32.00,16.00L32.00,16.00zM24.00,20.00C26.21,20.00,28.00,21.79,28.00,24.00C28.00,26.21,26.21,28.00,24.00,28.00C21.79,28.00,20.00,26.21,20.00,24.00C20.00,21.79,21.79,20.00,24.00,20.00z"/>
	<path
		fill="#000000"
		stroke="#000000"
		fill-opacity="0.333"
		stroke-opacity="0.000"
		fill-rule="nonzero"
		stroke-width="2.3314276"
		stroke-linejoin="round"
		stroke-linecap="round"
		d="M15.33,17.50L15.33,30.50A2.17 2.17 0 0 0 17.50,32.67L30.50,32.67A2.17 2.17 0 0 0 32.67,30.50L32.67,17.50A2.17 2.17 0 0 0 30.50,15.33L17.50,15.33A2.17 2.17 0 0 0 15.33,17.50z"/>
</svg>