<?xml version="1.0" encoding="utf-8"?>
<svg
	version="1.1"
	xmlns="http://www.w3.org/2000/svg"
	xmlns:xlink="http://www.w3.org/1999/xlink"
	x="0%" y="0%"
	width="100%" height="100%"
	viewBox="0 0 108.0 108.0"
	enable-background="new 0 0 108.0 108.0"
	xml:space="preserve">
	<path
		fill="#FCD2C6"
		stroke="#000000"
		fill-opacity="1.000"
		stroke-opacity="0.000"
		fill-rule="nonzero"
		stroke-width="4.86"
		stroke-linejoin="round"
		stroke-linecap="round"
		d="M54.00,0.00C24.18,0.00,0.00,24.18,0.00,54.00C0.00,83.82,24.18,108.00,54.00,108.00C83.82,108.00,108.00,83.82,108.00,54.00C108.00,24.18,83.82,0.00,54.00,0.00z"/>
	<path
		fill="#000000"
		stroke="#000000"
		fill-opacity="0.333"
		stroke-opacity="1.000"
		fill-rule="nonzero"
		stroke-width="4.86"
		stroke-linejoin="round"
		stroke-linecap="round"
		d="M34.51,60.51C36.89,60.39,39.27,60.27,41.27,59.04C43.26,57.80,44.87,55.45,45.12,52.76C45.36,50.07,44.24,47.06,44.33,44.08C44.42,41.10,45.71,38.15,47.93,36.19C50.15,34.23,53.30,33.26,56.36,33.40C59.42,33.54,62.39,34.78,64.98,36.78C67.58,38.78,69.81,41.55,71.23,45.75C72.66,49.96,73.28,55.61,72.02,60.57C70.77,65.53,67.64,69.79,62.98,72.20C58.32,74.61,52.13,75.16,47.60,74.10C43.08,73.04,40.22,70.37,38.31,67.83C36.41,65.30,35.46,62.91,34.51,60.51zM52.90,60.80L51.45,62.31L53.55,61.71C57.87,60.81,57.27,56.12,52.90,60.80zM57.77,43.87L57.77,43.87zM68.13,37.47L73.49,35.36L70.46,40.22"/>
</svg>